<svg xmlns="http://www.w3.org/2000/svg" enable-background="new 0 0 3000 3000" viewBox="0 0 3000 3000"><path fill="#b8b8d1" d="M2323.07 2676.39c-12.48 39.83-55.04 72.23-94.87 72.23H379.95c-39.83 0-62.08-32.4-49.6-72.23l366.91-1170.76c12.48-39.83 55.04-72.23 94.87-72.23h1848.24c39.83 0 62.08 32.4 49.6 72.23l-366.9 1170.76z"/><path fill="#c8c8dc" d="M2302.73 2644.42c-12.48 39.83-55.04 72.23-94.87 72.23H359.62c-39.83 0-62.08-32.4-49.6-72.23l366.91-1170.76c12.48-39.83 55.04-72.23 94.87-72.23h1848.24c39.83 0 62.08 32.4 49.6 72.23l-366.91 1170.76z"/><path fill="#e9e9f2" d="M722.42 1473.65 355.51 2644.42c-4.63 14.77 3.59 26.74 18.36 26.74h1848.24c14.77 0 30.49-11.97 35.12-26.74l366.91-1170.76c4.63-14.77-3.59-26.74-18.36-26.74H757.55c-14.77-.01-30.5 11.96-35.13 26.73z"/><path fill="#171c80" d="M1598.36 2674.32c57.47-361.38 96.23-608.23 96.23-608.23l-654.29-181.64s-28.7 330.17-67.42 789.86h625.48z"/><path fill="#111968" d="M1260.87 2674.32h338.74c56.76-361.01 95.05-608.26 95.05-608.26l-656.87-164.12s-18.1 229.96-30.98 379.49l251.53 367.21 2.53 25.68z"/><g><path fill="#171c80" d="M1979.11 2674.32c3.02-369.11 12.45-740.21 12.45-740.21l-830.34 91.71s38.6 199.36 136.45 299.55c7.77 107.9 13.67 189.49 25.24 348.95h656.2z"/><path fill="#070e3f" d="M1702.6 2267.14c.01 1.91-3.97 3.89-11.46 5.06-7.47 1.17-18.45 1.34-31.75-.63-13.29-1.97-28.85-6.1-45.19-12.95-16.34-6.83-33.48-16.29-49.93-28.46-16.44-12.16-30.61-25.85-41.75-39.87-11.15-14.02-19.25-28.38-23.92-41.39-4.78-12.97-6-24.46-5.36-32.21.64-7.81 2.82-11.84 4.69-11.8 2.02.03 3.62 3.93 6.22 10.26 2.59 6.34 6.33 15.15 12.55 25.21 6.13 10.08 14.71 21.39 25.57 32.9 10.86 11.51 24.01 23.18 38.84 34.15 14.83 10.98 29.92 20.16 44.12 27.57 14.2 7.43 27.54 13 38.99 17.16 11.45 4.15 21.02 6.9 27.76 9.07 6.69 2.19 10.61 3.94 10.62 5.93zm-502.78-126.19c.84-.12 1.89 1.16 3.12 3.68.62 1.26 1.28 2.83 1.98 4.7.71 1.86 1.6 3.99 2.47 6.41 3.6 9.63 8.59 23.55 16.5 40.09 7.87 16.55 18.72 35.69 33.08 55.74 3.62 4.99 7.39 10.08 11.45 15.15 4.01 5.1 8.28 10.2 12.75 15.3 4.47 5.1 9.15 10.2 14.06 15.22 2.45 2.52 4.96 5 7.51 7.46 1.28 1.22 2.56 2.44 3.86 3.63l.74.68 1.04.93 2.08 1.87c1.42 1.23 2.84 2.46 4.26 3.7.35 4.11.7 8.25 1.06 12.4.11 1.2.21 2.4.32 3.6l.24 3.53c.3 4.7.65 9.49.9 14.24.25 4.76.49 9.55.74 14.38.21 4.82.42 9.66.63 14.54 1.5 37.11 2.26 72.39 2.7 104.48.43 32.09.5 60.98.31 85.23-.12 12.13-.24 23.09-.48 32.73-.12 4.82-.2 9.29-.35 13.42-.17 4.13-.32 7.89-.46 11.29-.16 3.39-.35 6.41-.59 9.04-.22 2.62-.38 4.81-.66 6.62-.52 3.61-1.26 5.61-2.23 5.75-.97.14-2.12-1.6-3.43-5.09-.64-1.74-1.39-3.94-2.05-6.52-.65-2.58-1.32-5.57-2.01-8.95-.34-1.69-.71-3.48-1.04-5.36-.31-1.88-.64-3.84-.98-5.9-.65-4.11-1.35-8.6-1.98-13.41-1.26-9.62-2.55-20.59-3.71-32.71-2.37-24.25-4.52-53.14-6.37-85.2-1.87-32.06-3.42-67.34-4.92-104.25-.41-9.68-.81-19.24-1.2-28.66-.19-4.71-.46-9.3-.68-13.9-.06-1.14-.12-2.29-.17-3.42-.08-1.11-.15-2.21-.23-3.31l-.06-.83-.02-.35v-.01l.01-.06.03-.09-.02-.06-.01-.04-.01-.02.05.04-.06-.06-.27-.26c-1.43-1.38-2.82-2.77-4.19-4.15-2.73-2.78-5.38-5.56-7.93-8.37-5.13-5.6-9.95-11.26-14.5-16.93-4.55-5.67-8.85-11.34-12.85-17.02-4.04-5.65-7.75-11.32-11.26-16.9-13.94-22.4-23.63-43.94-29.67-62.5-6.09-18.56-8.6-34.05-9.33-44.71-.15-2.67-.3-5.03-.26-7.09.06-2.07.17-3.81.35-5.23.31-2.86.9-4.37 1.74-4.49z"/></g><g><path fill="#1996f2" d="M852.85 1398.67s-136.17 327.76 91.37 369.18c161.47 29.39 434.86-760.76 434.86-760.76l-526.23 391.58z"/><path fill="#115ace" d="M995.58 1607.56c-4.21.39-10.02-25.19-12.97-57.14-2.95-31.95-1.93-58.16 2.28-58.55 4.21-.39 10.02 25.19 12.97 57.14 2.96 31.95 1.93 58.16-2.28 58.55z"/><path fill="#1965f2" d="M839.23 1643.39c28.73-26.43 136.97 51.87 133.55 80.94-3.42 29.07-47.48 28.56-91.94-6.27-39.96-31.31-57.51-60.04-41.61-74.67z"/><path fill="#1996f2" d="M1591.16 894.99s95.76 527.93 145.22 626.82c49.47 98.9 325.07 347.29 397.27 291.98 163.58-125.32-232.35-848.24-542.49-918.8z"/><g><path fill="#ffcd5c" d="M1998.58 1873.46c-.1 29.94 14.98 62.96 4.43 73.23-189.31 184.89-943.07 104.97-986.54 23.79-10.08-18.81 2.24-55.32-.55-86.03 101.23 42.61 467.23 183.98 982.66-10.99z"/><path fill="#1996f2" d="M2018.55 1884.99c-515.43 194.97-919.95 53.06-1021.17 10.46-26.19-284.68 243.32-1017.24 514.57-1032.21 196.4-10.93 507.27 780.92 506.6 1021.75z"/><path fill="#1965f2" d="M2018.58 1885c-515.43 194.92-919.95 53.03-1021.19 10.41-1.64-17.87-2.13-37.62-1.56-58.77 535.92 94.18 910.33 65.3 896.67-430.1 74.69 189.93 126.33 380.1 126.08 478.46z" opacity=".5"/><path fill="#115ace" d="M2018.55 1862.77c-.53.04-1.24-2.12-2.12-6.23-.92-4.11-1.77-10.19-3.39-17.96-2.79-15.58-7.55-37.99-14.42-65.46-6.86-27.47-15.9-59.99-26.79-95.87-10.85-35.89-23.61-75.13-37.5-116.17-13.88-41.04-27.6-79.99-40.26-115.36-12.65-35.37-24.22-67.18-33.89-93.92-19.37-53.46-31.13-86.65-29.17-87.47 1.95-.81 17.27 30.98 39.26 83.53 10.98 26.28 23.62 57.76 37.04 92.96 13.42 35.2 27.59 74.13 41.53 115.34 13.95 41.2 26.36 80.78 36.54 117.12 10.21 36.33 18.25 69.41 23.81 97.47 5.58 28.05 8.76 51.05 9.76 67.07.72 7.97.63 14.24.56 18.46-.12 4.23-.43 6.46-.96 6.49zm-1022.97-46.88c-1.05-.08-.99-11.02.1-30.79.42-4.92.92-10.4 1.5-16.39.29-3 .6-6.12.92-9.37.17-1.62.31-3.29.52-4.97.22-1.68.45-3.39.68-5.13.94-6.96 1.95-14.41 3.02-22.31.14-.99.27-1.98.41-2.98.16-1 .33-2 .5-3.01.34-2.02.68-4.07 1.02-6.14.7-4.15 1.41-8.41 2.15-12.77 6.07-34.86 15.03-76.06 27.19-121.22 1.53-5.64 3.02-11.37 4.65-17.13 1.66-5.75 3.33-11.57 5.03-17.45 3.31-11.78 7.07-23.69 10.79-35.85 1.84-6.09 3.82-12.19 5.82-18.33 2-6.15 4.01-12.35 6.04-18.59 2.11-6.22 4.24-12.48 6.38-18.78 2.16-6.3 4.28-12.65 6.58-18.99 35.86-101.72 75.11-191.17 105.56-254.83 15.26-31.83 28.31-57.24 37.81-74.56 9.5-17.32 15.4-26.56 16.34-26.07.94.49-3.15 10.61-10.98 28.69-7.83 18.08-19.36 44.12-33.3 76.42-27.84 64.6-65.33 154.3-100.97 255.43-2.28 6.3-4.4 12.62-6.56 18.87-2.15 6.26-4.28 12.48-6.4 18.65-2.05 6.19-4.08 12.34-6.1 18.44-2.03 6.1-4.04 12.14-5.91 18.17-3.79 12.05-7.65 23.84-11.08 35.5-1.76 5.81-3.5 11.57-5.22 17.26-1.7 5.69-3.26 11.35-4.87 16.93-12.81 44.61-22.78 85.2-30.16 119.51-.9 4.29-1.79 8.48-2.65 12.57-.43 2.04-.86 4.06-1.28 6.05-.21.99-.42 1.98-.63 2.96-.18.98-.37 1.96-.55 2.93-1.47 7.77-2.86 15.09-4.16 21.94-.33 1.71-.66 3.4-.98 5.05-.31 1.65-.55 3.29-.82 4.88-.54 3.2-1.05 6.27-1.55 9.21-1 5.89-1.94 11.27-2.81 16.12-2.9 19.41-4.97 30.17-6.03 30.08z"/></g><g><path fill="#1996f2" d="M1715.16 1298.2s204.98 154.62 287.65 195.75c158.55 78.89 208.79 319.47 103.1 330.04-255.71 25.57-486.31-384.02-486.31-384.02l95.56-141.77z"/><path fill="#115ace" d="M2036.2 1521.81c-2.4 3.48-76.87-43.75-166.32-105.5-89.45-61.75-160.02-114.63-157.62-118.11 2.4-3.48 76.87 43.75 166.32 105.5 89.46 61.75 160.02 114.63 157.62 118.11zm-43.32 287.01c-.13.51-2.08.49-5.71-.02-.91-.13-1.92-.29-3.03-.48-1.11-.21-2.3-.5-3.6-.79-2.59-.62-5.61-1.3-8.91-2.35-1.66-.51-3.41-1.05-5.25-1.61-1.82-.61-3.72-1.31-5.71-2.02-.99-.36-2.01-.73-3.04-1.1-1.03-.38-2.06-.82-3.13-1.25-2.12-.87-4.33-1.75-6.6-2.72-9.04-3.94-19.1-8.97-29.84-15.16-21.51-12.36-45.63-29.55-70.37-50.88-24.79-21.28-50.18-46.69-75.12-74.77-24.93-28.1-47.08-56.18-66.31-82.34-19.22-26.17-35.53-50.44-48.66-71.16-26.25-41.47-39.82-68.71-38-69.76 1.84-1.08 18.61 24.06 46.98 63.71 14.19 19.82 31.29 43.25 50.95 68.72 19.68 25.45 41.9 52.96 66.49 80.66 24.6 27.69 49.24 52.94 73 74.35 23.72 21.45 46.52 39.07 66.71 52.24 10.08 6.6 19.48 12.13 27.91 16.68 2.12 1.1 4.17 2.17 6.15 3.2.99.51 1.95 1.03 2.91 1.5.96.46 1.91.92 2.83 1.36 1.85.9 3.62 1.75 5.31 2.57 1.71.77 3.33 1.5 4.87 2.2 3.06 1.46 5.85 2.55 8.25 3.61 1.2.53 2.3 1.02 3.32 1.47 1.02.42 1.95.81 2.77 1.18 3.28 1.43 4.96 2.45 4.83 2.96z"/><path fill="#1965f2" d="M2000.96 1785.89c53.37 31.81 98.37 27.32 119.88 5.98 45.2-44.84 45.79-108.92 13.68-105.16-21.24 2.49-194.5 62.86-133.56 99.18z"/></g></g><g><path fill="#070e3f" d="M1313.84 714.47s-84.05-84.15-87.03-182.78c-1.89-62.69 16.21-90.08 39.63-100.88 20.26-109.41 96.58-160.93 132.86-131.48 6.46 5.25.45 33.29.45 33.29s238.1-87.39 189.16 32.43c93.68 54.95 76.56 95.48 32.43 120.7 0 0 39.87 220.73-84.91 254.69l-222.59-25.97z"/><path fill="#fca993" d="M1394.89 795.76s24.46 41.8 27.06 142.17c.48 18.48 34.53 58.45 82.91 50.93 40.34-6.27 72.91-58.66 62.47-100.96-24.67-99.97-12.02-224.85-12.02-224.85l-160.42 132.71z"/><path fill="#fca993" d="M1272.07 536.25s-46 291.3 36.04 318.64c82.05 27.34 220.37-62.88 241.35-127.42 39.22-120.66 11.41-246.43-97.88-249.93-181.16-5.79-179.51 58.71-179.51 58.71z"/><path fill="#d8776a" d="M1319.41 857.83c.01-.68 2.38-1.32 6.62-1.9 2.12-.28 4.71-.55 7.71-.93 2.99-.37 6.41-.63 10.15-1.13 14.98-1.76 35.64-4.45 57.39-11.07 10.86-3.3 20.95-7.2 29.73-11.53 8.83-4.26 16.34-8.9 22.42-13.15 3.02-2.14 5.68-4.19 8-6.04 2.29-1.87 4.22-3.53 5.81-4.91 3.16-2.77 4.92-4.35 5.49-3.99.58.36-.18 2.79-2.59 6.5-1.21 1.84-2.84 4-4.88 6.36a92.315 92.315 0 0 1-7.48 7.52c-5.86 5.23-13.47 10.8-22.58 15.77-9.08 5.05-19.65 9.44-31.05 12.91-11.41 3.47-22.56 5.64-32.74 6.91-1.27.19-2.53.33-3.77.44-1.24.12-2.47.24-3.68.36-1.21.11-2.4.22-3.57.33-1.17.07-2.33.13-3.47.2-2.27.12-4.47.25-6.57.31-2.11.02-4.13.03-6.07.05-3.86.06-7.35-.17-10.41-.32-3.06-.14-5.69-.44-7.83-.75-4.3-.61-6.65-1.26-6.63-1.94z"/><path fill="#ea907f" d="M1353.49 814.26c-1.61-3.18-2.23-6.5-1.71-10.05.47-3.21 1.96-6.4 4.15-8.79 4.71-5.17 12.2-6.2 18.45-3.34 3.57 1.63 6.28 4.46 7.94 7.98.83 1.76-.48 4.2-2.27 4.74-2.09.64-3.86-.38-4.74-2.27-.28-.59.38.59-.11-.18-.14-.22-.27-.44-.42-.65-.17-.25-.36-.48-.54-.72-.07-.09-.37-.37-.02-.03.38.37-.05-.04-.12-.11-.4-.39-.81-.76-1.26-1.1-.1-.08-.21-.15-.31-.23-.38-.33.6.34.16.1-.26-.14-.52-.31-.78-.46-.5-.27-1.01-.49-1.53-.71-.81-.34.5.11-.16-.06-.29-.08-.58-.16-.88-.23-.55-.12-1.1-.19-1.66-.26-.67-.09.79-.02-.16 0-.3.01-.6.01-.9.03-.3.02-.6.05-.89.1-.18.03-.88.25-.41.06.48-.19-.35.11-.52.17-.29.09-.57.2-.85.31-.16.07-.31.15-.47.21-.4.16.29-.13.27-.13-.15-.02-.54.32-.67.4-.25.16-.5.34-.74.52l-.3.24c-.42.33 0-.1.13-.12-.32.05-.92.97-1.13 1.23-.13.16-.49.5-.54.72 0 .02.38-.65.18-.26-.08.15-.18.29-.26.44-.28.49-.53.99-.74 1.51-.08.2-.29 1.03-.2.5.1-.55-.09.36-.13.52-.17.68-.26 1.35-.34 2.04-.02.18.07.45 0 .02-.09-.51.01 0 .01.15.01.34.02.69.04 1.03.03.3.08.59.11.89.04.34-.11.39-.05-.19-.01.14.09.36.13.5.08.29.17.58.27.86.08.21.6 1.36.14.45.47.92.78 1.73.57 2.79-.17.89-.77 1.89-1.56 2.38-1.56.94-4.24.85-5.18-1z"/><path fill="#e9e9f2" d="M1391.67 727.83s-48.17 28.75-92.55 29.03c0 .01 64.22 73.76 92.55-29.03z"/><path fill="#070e3f" d="M1362.11 661.31c9.24 3.13-17.79 37.87.13 40.44 17.92 2.56-10.75 10.77-14.96-3.19-4.21-13.97 6.63-40.02 14.83-37.25z"/><path fill="#070e3f" d="M1319.97 639.07c-1.07 12.08-7.21 21.41-13.73 20.83-6.52-.57-10.94-10.83-9.87-22.91 1.07-12.08 7.21-21.41 13.73-20.83 6.51.57 10.93 10.83 9.87 22.91zm-30.12-44.12c-1.22.62-1.97-13.9 5.53-14.81 7.49-.91 27.76-1.67 29.51 3.21s3.36 11.32-.96 10.94c-4.34-.39-22.67-5.15-34.08.66z"/><path fill="#fff" d="M1307.88 633.89c-.36 4.08-3.4 7.15-6.8 6.86-3.39-.3-5.85-3.85-5.49-7.94.36-4.09 3.4-7.15 6.8-6.85 3.4.29 5.86 3.84 5.49 7.93z"/><path fill="#070e3f" d="M1453.77 647.7c-.05 11.54-6.16 20.87-13.66 20.84-7.49-.03-13.53-9.41-13.48-20.95.05-11.54 6.16-20.87 13.66-20.84 7.5.02 13.53 9.41 13.48 20.95zm-22.35-54.9s-2.73 8.87-1.02 11.52c1.72 2.65 11.84.05 22.02 6.94 10.18 6.89 19.2 12.18 19.2 12.18s9.54-9.49 3.28-18.04c-6.25-8.54-41.92-20.61-43.48-12.6z"/><path fill="#fff" d="M1438.78 642.25c-.34 3.89-3.77 6.76-7.66 6.42-3.89-.34-6.76-3.77-6.42-7.66.34-3.89 3.77-6.76 7.66-6.42 3.89.34 6.76 3.77 6.42 7.66z"/><g><path fill="#fca993" d="M1537.21 681.51c56.69 31.16 91.08-97.89 39.99-116.3-14.75-5.32-43.38-6.09-48.89 23.05-5.94 31.43-3.51 86.43 8.9 93.25z"/><path fill="#070e3f" d="M1565.35 589.37c-11.18 9.86-30.67 42.08-14.82 64.34 0 0-1.22-15.64 6.43-25.76l20.23-11.06h-21l9.16-27.52z"/></g><path fill="#e9e9f2" d="M1368.15 642.33c-1.64-34.44 25.04-63.8 59.49-65.45 34.44-1.64 63.81 25.04 65.45 59.48 1.64 34.44-25.04 63.81-59.49 65.45-34.44 1.65-63.81-25.04-65.45-59.48zm9.11-.43c1.4 29.42 26.48 52.21 55.9 50.81 29.42-1.4 52.21-26.48 50.81-55.9-1.4-29.42-26.48-52.21-55.9-50.81-29.42 1.4-52.21 26.48-50.81 55.9zm-147.47-11.58c-1.64-34.44 25.04-63.8 59.49-65.45 34.44-1.64 63.81 25.04 65.45 59.48 1.64 34.44-25.04 63.81-59.49 65.45-34.44 1.65-63.8-25.04-65.45-59.48zm9.12-.44c1.4 29.42 26.48 52.21 55.9 50.81 29.42-1.4 52.21-26.48 50.81-55.9-1.4-29.42-26.48-52.21-55.9-50.81-29.42 1.41-52.22 26.48-50.81 55.9z"/><path fill="#070e3f" d="M1326.69 508.95s43.33 51.98 105.05 47.48c61.72-4.49 37.32-27.61 37.32-27.61s102.57 64.72 94.62 16.37c-16.31-99.2-155.65-131.27-237-110.76-87.84 22.15-91.41 118.24-71.96 119.69 22.36 1.68 71.5 2.38 71.97-45.17z"/></g><g><path fill="#c8c8dc" d="m867.78 908.76 58.12-89.04s56.89 14.84 95.22 51.94c0 0-50.7-64.31-76.67-70.49l12.37-18.55s190.45 148.4 217.65 217.65l-28.44 98.93-278.25-190.44z"/><path fill="#d9d9e7" d="m1519.5 940.91-37.1-127.38s-278.25 90.28-325.24 176.84l-11.13 74.2 373.47-123.66z"/><path fill="#ffcd5c" d="m1146.03 1064.58 140.98 497.14s150.87-165.71 363.58-153.35L1531.87 886.5s-272.07 49.46-385.84 178.08z"/><path fill="#f4b442" d="M1146.03 1064.58s-128.61-185.5-312.88-170.66l196.63 516.93s178.08 37.1 257.23 150.87l-140.98-497.14zm77.5 14.84 37.1 124.49s163.24-83.27 265.47-93.99l-29.71-129.44s-136.01 12.37-272.86 98.94z"/><g><path fill="#ffcd5c" d="M1691.46 1264.34c-21.64 27.7-129.55 135.92-85.02 168.04 44.53 32.12 108.83 13.61 123.67-71.94s-38.65-96.1-38.65-96.1z"/><path fill="#fca993" d="M1708.78 1270.43c-25.65-47.18-60.44-116.22-78.6-127.83-37.98-24.2-146.55-56.48-161.29-26.86-5.9 11.84 12.73 23.78 35.39 33.43-26.35-5.87-51.87-6.91-56.5 9.19-4.27 14.84 16.77 27.75 42.54 37.74-20.56-2.34-37.47.22-39.17 14.35-1.85 14.84 29.06 29.71 59.33 40.62-23.15-4.85-45.21-5.71-47.52 7.76-5.47 32.48 102.54 66 102.54 66 .03 76.79 43.09 99.59 88.14 85.47 7.96-2.49 74.37-104.69 55.14-139.87z"/><path fill="#d8776a" d="M1589.78 1179.81c-.3.51-1.7.39-3.94-.25-1.13-.3-2.43-.81-3.99-1.3-1.55-.5-3.3-1.12-5.2-1.83-7.68-2.73-18.23-6.53-30.04-10.51-23.58-8-42.88-14.44-42.34-16.75.52-2.29 21.01.49 45.09 8.66 12.03 4.06 22.59 8.88 29.84 13.12 1.8 1.09 3.41 2.11 4.8 3.04 1.39.92 2.51 1.88 3.42 2.64 1.82 1.57 2.66 2.67 2.36 3.18zm-17.4 43.76c-.53 1.09-5.3-.02-12.78-2.16-7.49-2.14-17.76-5.28-29.08-8.92-22.63-7.3-40.82-14.09-40.2-16.39.6-2.27 19.93.87 42.83 8.25 11.45 3.68 21.6 7.79 28.67 11.44 7.09 3.65 11.06 6.75 10.56 7.78zm-21.52 40.77c-.69 2.26-12.15.77-25.6-3.33s-23.8-9.25-23.11-11.5c.69-2.26 12.15-.77 25.6 3.33 13.45 4.09 23.8 9.24 23.11 11.5z"/></g><g><path fill="#ffcd5c" d="M894.1 1338.97c21.64 27.7 129.55 135.92 85.02 168.04-44.53 32.12-108.83 13.61-123.67-71.94-14.84-85.56 38.65-96.1 38.65-96.1z"/><path fill="#fca993" d="M876.78 1345.07c25.65-47.18 60.44-116.22 78.6-127.83 37.98-24.2 146.55-56.48 161.29-26.86 5.9 11.84-12.73 23.78-35.39 33.43 26.35-5.87 51.87-6.91 56.5 9.19 4.27 14.84-16.77 27.75-42.54 37.74 20.56-2.34 37.47.22 39.17 14.35 1.85 14.84-29.06 29.71-59.33 40.62 23.15-4.85 45.21-5.71 47.52 7.76 5.47 32.48-102.54 66-102.54 66-.03 76.79-43.09 99.59-88.14 85.47-7.96-2.5-74.37-104.69-55.14-139.87z"/><path fill="#d8776a" d="M995.78 1254.44c-.3-.51.54-1.61 2.34-3.17.91-.77 2.03-1.72 3.42-2.64 1.39-.93 3-1.95 4.8-3.04 7.25-4.24 17.81-9.06 29.84-13.12 24.08-8.17 44.58-10.95 45.09-8.66.54 2.31-18.76 8.75-42.34 16.75-11.8 3.98-22.36 7.77-30.04 10.51-1.9.71-3.64 1.33-5.2 1.83-1.56.49-2.86 1-3.99 1.3-2.22.63-3.62.75-3.92.24zm17.4 43.76c-.5-1.03 3.47-4.14 10.56-7.78 7.08-3.64 17.23-7.75 28.67-11.44 22.9-7.38 42.23-10.52 42.83-8.25.61 2.3-17.57 9.09-40.2 16.39-11.32 3.64-21.59 6.78-29.08 8.92-7.49 2.14-12.25 3.26-12.78 2.16z"/><ellipse cx="1059.05" cy="1331.56" fill="#d8776a" rx="25.46" ry="4.27" transform="rotate(-16.936 1059.2 1331.703)"/></g></g><g><path fill="#ffcd5c" d="m1869.82 671.69-57.3 80.04 133.62-78.38s440.79 82.73 515.24-55.33 88.54-343.04-54.17-378.89-635.47-8.43-668.36 90.07 18.68 307.83 62.83 332.4 68.14 10.09 68.14 10.09z"/><path fill="#c8c8dc" d="M2511.98 602.05c1.67.52 1.61 5.57-.06 14.55-.91 4.45-2.78 9.67-4.86 15.84-2.69 5.85-5.4 12.86-9.88 19.76-8.34 14.16-21.12 29.65-38.24 43.27-17.01 13.75-38.18 25.48-61.46 33.99-46.74 17.17-91.5 20.07-123.08 19.43-31.82-.89-50.88-5.61-50.8-8.68.07-3.91 19.54-5.56 49.96-9.21 30.34-3.85 72.4-9.54 115.11-25.29 43.01-15.25 75.59-40.59 93.8-63.74 18.83-22.85 25.56-41.29 29.51-39.92z"/><path fill="#f4b442" d="M2477.96 358.77c-1.74.06-3.68-1.94-5.62-5.27-.97-1.67-1.95-3.67-2.88-5.96-1.28-2.2-2.8-4.6-4.18-7.24-6.05-10.38-15.98-22.76-31.42-33.32-15.24-10.65-31.25-18.48-42.97-24.44-11.74-6.02-19.2-10.45-18.63-13.91.55-3.44 9.72-5.18 23.92-3.2 14.12 1.95 33.55 7.8 52.34 20.89 19.02 12.77 31.09 32.84 33.65 48.01.58 3.84 1.07 7.26 1.14 10.26-.27 3.06-.67 5.66-1.18 7.76-1.01 4.2-2.43 6.36-4.17 6.42z"/><path fill="#d89935" d="m1963.15 355.33 1.52.28c1.69.3 3.2.68 4.53 1.15 1.33.47 2.52.97 3.57 1.49 1.05.52 2.18 1.14 3.4 1.86 1.22.71 2.54 1.52 3.96 2.42 2.77 1.8 4.39 3.56 4.83 5.28.26.86.58 1.87.96 3.04s.81 2.45 1.29 3.88c1.05 3.04 1.76 6.19 2.14 9.47.37 3.28.67 6.51.9 9.7.15 1.99.25 3.99.31 6.02.06 2.02.03 4.05-.08 6.07-.11 2.02-.34 4.03-.67 6.02-.34 1.99-.82 3.92-1.46 5.79-.37 1.12-.87 2.32-1.49 3.6-.62 1.27-1.36 2.62-2.22 4.05-1.61 2.81-3.43 4.89-5.45 6.24-1.42.97-3.35 1.84-5.79 2.59-2.36.67-4.4 1.12-6.13 1.35-4.12.52-8.15.22-12.09-.9-3.9-1.12-7.23-3.32-10.01-6.58-2.36-2.77-4.25-5.72-5.68-8.83a44.485 44.485 0 0 1-2.59-7.11c-.67-2.49-1.16-5.14-1.46-7.96-.11-1.16-.21-2.27-.28-3.32-.07-1.05-.11-2.08-.11-3.09s.03-2.04.08-3.09c.06-1.05.16-2.17.31-3.37.22-1.95.39-3.69.51-5.23.19-1.57.52-3.34 1.01-5.28.37-1.46.82-2.9 1.32-4.33s1.02-2.87 1.55-4.33c.9-2.51 1.99-4.52 3.26-6.02 1.35-1.5 3.04-3.13 5.06-4.89.71-.6 1.42-1.15 2.14-1.66.71-.51 1.44-.97 2.19-1.38 1.99-1.09 4.25-1.86 6.8-2.3.19-.04.52-.09 1.01-.17.49-.07 1.16-.15 2.02-.22h.17c.11-.04.32-.06.62-.06l.05-.18zm-.4 15.17c-.19.04-.37.07-.53.08-.17.02-.33.03-.48.03l-1.18.34c-1.12.45-2.12 1.05-2.98 1.8-.86.75-1.61 1.59-2.25 2.53-.64.94-1.18 1.93-1.63 2.98-.45 1.05-.84 2.14-1.18 3.26-.9 3.15-1.57 5.7-2.02 7.65-.45 2.06-.66 4.67-.62 7.81.04.9.07 1.81.11 2.73.04.92.11 1.85.22 2.78.22 2.06.58 3.97 1.07 5.73.49 1.76 1.09 3.37 1.8 4.83.6 1.31 1.28 2.48 2.05 3.51.77 1.03 1.65 1.9 2.64 2.61.99.71 2.09 1.22 3.29 1.52s2.57.34 4.1.11c2.21-.3 4.07-1.11 5.57-2.42 1.5-1.31 2.64-3.09 3.43-5.34.49-1.35.83-2.76 1.04-4.24.21-1.48.33-3.05.37-4.69s.04-3.23 0-4.75-.11-2.99-.22-4.41c-.11-1.61-.24-3.23-.39-4.86s-.36-3.29-.62-4.98c-.45-3.19-1.14-5.75-2.08-7.7-1.62-3.4-4.79-5.71-9.51-6.91zm84.95-7.53c.52-4.76 3.3-7.08 8.32-6.97 1.09.04 2.07.27 2.95.7.88.43 1.68 1.02 2.39 1.77 1.46 1.5 2.14 3.26 2.02 5.28-.34 7.27-.42 14.48-.25 21.62.17 7.14.38 14.33.65 21.56l.67 18.83.17 4.67c.04 1.39-.71 2.74-2.25 4.05-1.61 1.31-3.69 1.87-6.24 1.69-2.51-.22-4.4-1.24-5.68-3.04-.11-.19-.25-.44-.42-.76-.17-.32-.38-.72-.65-1.21-.22-.45-.69-1.14-1.41-2.08-.67-.94-1.18-1.72-1.52-2.36-.9-1.46-1.67-2.97-2.3-4.53-.64-1.56-1.35-3.12-2.14-4.69-.56-.9-1.1-1.83-1.6-2.78s-1-1.9-1.49-2.84c-.07-.15-.2-.4-.37-.76l-.7-1.49c-.3-.64-.6-1.26-.9-1.86-.3-.6-.6-1.22-.9-1.86l-4.83-9.89c-.15-.22-.5-.83-1.04-1.83-.54-.99-1.3-2.39-2.28-4.19-1.95-3.56-3.17-5.08-3.65-4.55-.34.37-.36 1.5-.06 3.37.15.94.27 1.72.37 2.36.09.64.16 1.14.2 1.52.04.82.03 1.62-.03 2.39s-.13 1.54-.22 2.31-.18 1.55-.25 2.33c-.07.79-.09 1.59-.06 2.42.11 4.42.2 8.84.25 13.24.06 4.4.05 8.82-.03 13.24-.07 2.25-.69 3.97-1.84 5.17-1.14 1.2-2.79 1.89-4.93 2.08-4.29.34-7.11-1.33-8.47-5-.15-.52-.24-1.13-.28-1.83-.04-.69-.04-1.51 0-2.45l.11-4.67c.15-3.75.16-7.51.03-11.27s-.23-7.52-.31-11.27c-.22-8.25-.34-16.53-.34-24.85v-8.1c0-1.69.14-3.16.42-4.41.28-1.26.74-2.26 1.38-3.01.68-.75 1.45-1.36 2.31-1.83a8.945 8.945 0 0 1 5.64-.99c.98.15 1.92.51 2.82 1.07.72.41 1.46.96 2.23 1.63.77.67 1.59 1.44 2.45 2.3s1.65 1.67 2.36 2.42 1.35 1.44 1.91 2.08c.37.41.82.97 1.32 1.69.51.71 1.08 1.56 1.71 2.53.86 1.35 1.63 2.6 2.3 3.74.67 1.14 1.27 2.18 1.8 3.12.3.56.91 1.62 1.83 3.18s2.13 3.63 3.63 6.21c3 5.13 4.91 7.76 5.73 7.87.6.11.79-1.22.56-3.99-.11-1.42-.19-2.53-.22-3.32-.04-.79-.07-1.27-.11-1.46-.19-2.36-.32-4.62-.39-6.77-.07-2.16-.17-4.41-.28-6.77-.08-1.57-.16-3.02-.25-4.33-.07-1.3-.03-2.78.16-4.43zm35.31 13.83v-12.71c-.07-4.61 2.38-7.21 7.36-7.81 2.85-.34 4.98.39 6.41 2.19 1.5 1.84 2.19 4.05 2.08 6.63-.07 2.17-.11 4.17-.11 5.99 0 1.82.02 3.51.06 5.09.07 2.36.05 4.66-.08 6.89-.13 2.23-.2 4.53-.2 6.89 0 1.31.03 2.58.08 3.79s.12 2.39.2 3.51c.04.9.07 1.71.08 2.45.02.73.03 1.44.03 2.14s-.03 1.4-.08 2.11c-.06.71-.1 1.48-.14 2.3-.07 1.24-.09 2.53-.06 3.88.04 1.35.07 2.64.11 3.88.11 4.2 1.46 6.63 4.05 7.31 1.31.34 2.72.54 4.22.62 1.5.07 3.11.06 4.83-.06.97-.07 2.18-.17 3.63-.28 1.44-.11 3.12-.26 5.03-.45 3.75-.37 6.5-.32 8.26.17 4.27 1.31 5.94 4.05 5 8.21-.9 4.24-3.58 6.35-8.04 6.35-2.81-.04-5.58-.07-8.32-.08-2.74-.02-5.49.01-8.26.08-2.17.04-4.33.12-6.47.25-2.14.13-4.27.16-6.41.08-.71 0-1.46-.01-2.25-.03-.79-.02-1.65-.03-2.59-.03-1.87.07-3.39-.15-4.55-.67-2.55-1.16-3.8-3.5-3.77-7.03.04-2.36.03-4.74-.03-7.14s-.08-4.78-.08-7.14c0-6-.06-11.96-.17-17.88-.11-5.92-.07-11.88.11-17.88l.07-1.62zm80.05 31.71v.22c0 2.25.04 4.5.11 6.75s.15 4.5.22 6.75c.07 1.61.06 3.19-.06 4.72-.11 1.54-.3 3.09-.56 4.67-.49 3-2.92 4.42-7.31 4.27-4.2-.15-6.47-2.08-6.8-5.79 0-.15-.01-.32-.03-.51s-.03-.39-.03-.62v-2.61c0-1.03-.04-2.24-.11-3.63-.07-2.7-.14-5.37-.2-8.01-.06-2.64-.12-5.31-.2-8.01-.04-.97-.08-1.91-.14-2.81s-.14-1.72-.25-2.47c-.11-.75-.17-1.58-.17-2.5s.04-1.92.11-3.01c.11-1.35.2-2.56.25-3.63.06-1.07.08-2.3.08-3.68 0-3.49.01-6.92.03-10.32s.03-6.85.03-10.37v-2.59c0-.87.02-1.74.06-2.64.07-1.87.94-3.35 2.59-4.44.75-.49 1.58-.8 2.5-.93.92-.13 1.9-.12 2.95.03 2.14.3 3.86 1.01 5.17 2.14 1.42 1.27 2.06 2.75 1.91 4.44-.07.82-.14 1.65-.2 2.47-.06.82-.08 1.67-.08 2.53 0 1.57.05 2.95.14 4.13.09 1.18.2 2.52.31 4.02.15 2.25.09 4.27-.17 6.07-.15.9-.25 1.85-.31 2.84-.06.99-.08 2.03-.08 3.12l.24 19.4zm58.47-45.54c.52-4.76 3.3-7.08 8.32-6.97 1.09.04 2.07.27 2.95.7.88.43 1.68 1.02 2.39 1.77 1.46 1.5 2.14 3.26 2.02 5.28-.34 7.27-.42 14.48-.25 21.62.17 7.14.38 14.33.65 21.56l.67 18.83.17 4.67c.04 1.39-.71 2.74-2.25 4.05-1.61 1.31-3.69 1.87-6.24 1.69-2.51-.22-4.4-1.24-5.68-3.04-.11-.19-.25-.44-.42-.76-.17-.32-.38-.72-.65-1.21-.22-.45-.69-1.14-1.41-2.08-.67-.94-1.18-1.72-1.52-2.36-.9-1.46-1.67-2.97-2.3-4.53-.64-1.56-1.35-3.12-2.14-4.69-.56-.9-1.1-1.83-1.6-2.78-.51-.96-1-1.9-1.49-2.84-.07-.15-.2-.4-.37-.76l-.7-1.49c-.3-.64-.6-1.26-.9-1.86s-.6-1.22-.9-1.86l-4.83-9.89c-.15-.22-.5-.83-1.04-1.83-.54-.99-1.3-2.39-2.28-4.19-1.95-3.56-3.17-5.08-3.65-4.55-.34.37-.36 1.5-.06 3.37.15.94.27 1.72.37 2.36s.16 1.14.2 1.52c.04.82.03 1.62-.03 2.39s-.13 1.54-.22 2.31-.18 1.55-.25 2.33c-.07.79-.09 1.59-.06 2.42.11 4.42.2 8.84.25 13.24.06 4.4.05 8.82-.03 13.24-.07 2.25-.69 3.97-1.84 5.17-1.14 1.2-2.79 1.89-4.93 2.08-4.29.34-7.11-1.33-8.47-5-.15-.52-.24-1.13-.28-1.83-.04-.69-.04-1.51 0-2.45l.11-4.67c.15-3.75.16-7.51.03-11.27-.13-3.77-.23-7.52-.31-11.27-.22-8.25-.34-16.53-.34-24.85v-8.1c0-1.69.14-3.16.42-4.41.28-1.26.74-2.26 1.38-3.01.68-.75 1.45-1.36 2.31-1.83a8.945 8.945 0 0 1 5.64-.99c.98.15 1.92.51 2.82 1.07.72.41 1.46.96 2.23 1.63.77.67 1.59 1.44 2.45 2.3.86.86 1.65 1.67 2.36 2.42s1.35 1.44 1.91 2.08c.38.41.82.97 1.32 1.69.51.71 1.08 1.56 1.71 2.53.86 1.35 1.63 2.6 2.3 3.74.67 1.14 1.27 2.18 1.8 3.12.3.56.91 1.62 1.83 3.18s2.13 3.63 3.63 6.21c3 5.13 4.91 7.76 5.73 7.87.6.11.79-1.22.56-3.99-.11-1.42-.19-2.53-.22-3.32-.04-.79-.07-1.27-.11-1.46-.19-2.36-.32-4.62-.39-6.77-.07-2.16-.17-4.41-.28-6.77-.07-1.57-.16-3.02-.25-4.33-.07-1.3-.03-2.78.16-4.43zm52.45 57.68c1.5.3 3 .48 4.5.53 1.5.06 3.04.08 4.61.08h.45c.49 0 .99-.03 1.52-.08.52-.06 1.05-.08 1.57-.08 2.14.04 4.23.01 6.27-.08a66.8 66.8 0 0 1 6.32.03c1.09.07 2.22.15 3.4.22s2.39.19 3.63.34c2.47.22 4.05 1.74 4.72 4.55.49 2.06.22 4.16-.79 6.3-.94 2.06-2.6 3.26-5 3.6-.41.07-.95.11-1.6.11h-2.28c-.87 0-1.63-.01-2.31-.03-.67-.02-1.26-.03-1.74-.03-1.8-.04-3.59-.06-5.37-.06h-5.37c-3 0-5.92.11-8.77.34-2.85.22-5.79.22-8.81 0-1.23-.07-2.47-.22-3.7-.42-1.23-.21-2.48-.5-3.75-.87-2.43-.71-3.72-2.64-3.87-5.79-.07-1.27-.12-2.57-.14-3.88-.02-1.31-.05-2.62-.08-3.94-.15-4.5-.27-9.15-.37-13.94-.09-4.8-.16-9.8-.2-15.01v-11.61c0-3.88.02-7.75.06-11.61 0-.56.03-1.18.08-1.86.06-.67.14-1.37.25-2.08.11-.71.26-1.39.45-2.02.19-.64.41-1.22.67-1.74.37-.71.8-1.41 1.29-2.08.48-.67 1.04-1.25 1.65-1.71.62-.47 1.31-.83 2.08-1.1a6 6 0 0 1 2.49-.28c.22.04.52.07.9.08a23.437 23.437 0 0 0 2.38 0c.39-.02.74-.03 1.04-.03 1.04.04 1.95.07 2.72.08s1.41.03 1.94.03c4.65.11 9.34.22 14.08.31s9.44.07 14.08-.08c3.04-.04 5.3.97 6.8 3.04 1.54 2.1 1.67 4.52.39 7.25-1.5 3.19-4.12 4.74-7.87 4.67-1.39-.04-2.8-.1-4.24-.2-1.44-.09-2.93-.23-4.47-.42-3.04-.41-5.85-.45-8.43-.11-1.35.19-2.65.37-3.91.53-1.26.17-2.58.31-3.96.42-.75.07-1.42.17-2.02.28-.6.11-1.13.3-1.6.56s-.85.64-1.15 1.12c-.3.49-.51 1.12-.62 1.91-.15 1.31-.19 2.64-.11 3.99.07 1.35.15 2.66.22 3.94 0 .6.03 1.2.08 1.8s.08 1.18.08 1.74c0 1.12.24 1.86.73 2.19.37.3.93.46 1.66.48.73.02 1.32.03 1.77.03 1.12-.04 2.26-.12 3.4-.25 1.14-.13 2.31-.22 3.51-.25 2.92-.07 5.82-.13 8.69-.17 2.87-.04 5.76-.04 8.69 0 2.02 0 3.82.75 5.4 2.25 1.5 1.46 2.25 3.2 2.25 5.23 0 2.1-.77 3.88-2.3 5.34-1.54 1.42-3.35 2.14-5.45 2.14-1.42 0-2.77-.02-4.05-.06-1.27-.04-2.6-.11-3.99-.22-.9-.07-1.72-.11-2.47-.11-.75 0-1.44.02-2.08.06-1.2.04-2.68.15-4.44.34-1.12.11-2.22.16-3.29.14-1.07-.02-2.16.01-3.29.08-1.8.04-3.04.37-3.71 1.01-.64.52-.9 1.41-.79 2.64 0 .6-.03 1.46-.08 2.59s-.12 2.53-.2 4.22c-.15 3.29.47 5.16 1.85 5.61zm-410.74 69.43v-12.71c-.07-4.61 2.38-7.21 7.36-7.81 2.85-.34 4.98.39 6.41 2.19 1.5 1.84 2.19 4.05 2.08 6.63-.07 2.17-.11 4.17-.11 5.99s.02 3.51.06 5.09c.07 2.36.05 4.66-.08 6.89-.13 2.23-.2 4.53-.2 6.89 0 1.31.03 2.58.08 3.79.06 1.22.12 2.39.2 3.51.04.9.07 1.71.08 2.45.02.73.03 1.44.03 2.14s-.03 1.4-.08 2.11c-.06.71-.1 1.48-.14 2.3-.07 1.24-.09 2.53-.06 3.88.04 1.35.08 2.64.11 3.88.11 4.2 1.46 6.63 4.05 7.31 1.31.34 2.72.54 4.22.62 1.5.07 3.11.06 4.83-.06.97-.07 2.18-.17 3.63-.28s3.12-.26 5.03-.45c3.75-.37 6.5-.32 8.26.17 4.27 1.31 5.94 4.05 5 8.21-.9 4.24-3.58 6.35-8.04 6.35-2.81-.04-5.58-.07-8.32-.08-2.74-.02-5.49.01-8.26.08-2.17.04-4.33.12-6.47.25s-4.27.16-6.41.08c-.71 0-1.46-.01-2.25-.03-.79-.02-1.65-.03-2.59-.03-1.87.07-3.39-.15-4.55-.67-2.55-1.16-3.8-3.5-3.77-7.03.04-2.36.03-4.74-.03-7.14-.06-2.4-.08-4.78-.08-7.14 0-6-.06-11.96-.17-17.88-.11-5.92-.07-11.88.11-17.88l.07-1.62zm82.14 43.85c1.5.3 3 .48 4.5.53s3.04.08 4.61.08h.45c.49 0 .99-.03 1.52-.08.52-.06 1.05-.08 1.57-.08 2.14.04 4.23.01 6.27-.08s4.15-.08 6.32.03c1.09.07 2.22.15 3.4.22 1.18.07 2.39.19 3.63.34 2.47.22 4.05 1.74 4.72 4.55.49 2.06.22 4.16-.79 6.3-.94 2.06-2.6 3.26-5 3.6-.41.08-.95.11-1.6.11h-2.28c-.87 0-1.63-.01-2.31-.03-.67-.02-1.26-.03-1.74-.03-1.8-.04-3.59-.06-5.37-.06h-5.37c-3 0-5.92.11-8.77.34-2.85.22-5.79.22-8.81 0-1.23-.07-2.47-.22-3.7-.42-1.23-.21-2.48-.5-3.75-.87-2.43-.71-3.72-2.64-3.87-5.79-.07-1.27-.12-2.57-.14-3.88-.02-1.31-.05-2.62-.08-3.94-.15-4.5-.27-9.15-.37-13.94-.09-4.8-.16-9.8-.2-15.01v-11.61c0-3.88.02-7.75.06-11.61 0-.56.03-1.18.08-1.86.06-.67.14-1.37.25-2.08.11-.71.26-1.39.45-2.02.19-.64.41-1.22.67-1.74.37-.71.8-1.41 1.29-2.08.48-.67 1.04-1.25 1.65-1.71.62-.47 1.31-.83 2.08-1.1a6 6 0 0 1 2.49-.28c.22.04.52.07.89.08a23.15 23.15 0 0 0 2.38 0c.39-.02.74-.03 1.04-.03 1.04.04 1.95.07 2.72.08.77.02 1.41.03 1.94.03 4.65.11 9.34.22 14.08.31s9.44.07 14.08-.08c3.04-.04 5.3.97 6.8 3.04 1.54 2.1 1.67 4.52.39 7.25-1.5 3.19-4.12 4.74-7.87 4.67-1.39-.04-2.8-.1-4.24-.2-1.44-.09-2.93-.23-4.47-.42-3.04-.41-5.85-.45-8.43-.11-1.35.19-2.65.37-3.91.53-1.26.17-2.58.31-3.96.42-.75.07-1.42.17-2.02.28-.6.11-1.13.3-1.6.56s-.85.64-1.15 1.12-.51 1.12-.62 1.91c-.15 1.31-.19 2.64-.11 3.99.07 1.35.15 2.66.22 3.94 0 .6.03 1.2.08 1.8.06.6.08 1.18.08 1.74 0 1.12.24 1.86.73 2.19.37.3.93.46 1.66.48s1.32.03 1.77.03c1.12-.04 2.26-.12 3.4-.25 1.14-.13 2.31-.22 3.51-.25 2.92-.07 5.82-.13 8.69-.17s5.76-.04 8.69 0c2.02 0 3.82.75 5.4 2.25 1.5 1.46 2.25 3.2 2.25 5.23 0 2.1-.77 3.88-2.3 5.34-1.54 1.42-3.35 2.14-5.45 2.14-1.42 0-2.77-.02-4.05-.06s-2.6-.11-3.99-.22c-.9-.08-1.72-.11-2.47-.11-.75 0-1.44.02-2.08.06-1.2.04-2.68.15-4.44.34-1.12.11-2.22.16-3.29.14-1.07-.02-2.16.01-3.29.08-1.8.04-3.04.37-3.71 1.01-.64.52-.9 1.41-.79 2.64 0 .6-.03 1.46-.08 2.59-.06 1.12-.12 2.53-.2 4.22-.14 3.29.47 5.16 1.86 5.61zm87.76-59.93c.52 1.39 1.02 2.79 1.49 4.22.47 1.42.89 2.9 1.26 4.44a61.59 61.59 0 0 0 1.74 6.04c.71 2.08 1.39 4.08 2.02 5.99 1.57 4.98 3 9.92 4.27 14.81s2.53 9.85 3.77 14.87l.11.45c.15.56.29 1.11.42 1.63.13.52.27 1.05.42 1.57l1.52 5.96c.56 2.21 1.12 4.35 1.69 6.41.11.37.21.74.28 1.1.07.36.17.7.28 1.04.19.75.26 1.22.22 1.41-.15 1.35-1.01 2.6-2.59 3.77a9.565 9.565 0 0 1-5 1.74c-2.36.07-4.31-.43-5.85-1.52-1.87-1.39-3.26-3.5-4.16-6.35-.3-1.01-.61-2.03-.93-3.06s-.61-2.05-.87-3.06c-.56-2.14-3.3-3.2-8.21-3.2-4.91-.04-7.83 1.03-8.77 3.2-.67 1.5-1.19 3.02-1.55 4.55-.36 1.54-.78 3.05-1.26 4.55-.15.49-.64 1.09-1.46 1.8-.71.6-1.33 1.07-1.86 1.41-1.87 1.12-3.99 1.59-6.35 1.41-2.4-.19-4.25-1.18-5.57-2.98-.94-1.35-1.24-2.9-.9-4.67.64-2.92 1.39-5.77 2.25-8.55.37-1.16.71-2.26 1.01-3.29.3-1.03.56-2.01.79-2.95.52-2.36 1.05-4.73 1.57-7.11s1.07-4.77 1.63-7.17c.37-1.61.77-3.22 1.18-4.83.41-1.61.96-3.2 1.63-4.78.67-1.69 1.35-4.05 2.02-7.08.37-1.57.78-3.07 1.21-4.5s.87-2.79 1.32-4.1c.75-2.14 1.44-4.27 2.08-6.41.64-2.14 1.31-4.27 2.02-6.41.6-1.84 1.86-3.19 3.77-4.05.94-.41 1.89-.72 2.87-.93.97-.21 1.95-.27 2.92-.2 3.56.33 6.07 1.95 7.57 4.83zm-8.55 29.18c0-.11-.09.08-.28.59s-.51 1.32-.96 2.45c-.71 1.84-1.2 3.35-1.46 4.55-.52 2.17-.97 4.44-1.35 6.8-.07.45-.17.85-.28 1.21-.11.36-.21.67-.28.93-.15.45.21.77 1.07.96.52.08 1.11.14 1.74.2.64.06 1.31.12 2.02.2.45.04.94.07 1.46.08.52.02 1.09.01 1.69-.03 1.39-.11 1.8-1.26 1.24-3.43-.49-2.14-.88-3.62-1.18-4.44-.41-1.12-.85-2.27-1.32-3.43s-.87-2.32-1.21-3.49l-.9-3.15zm46.05-26.65c-.07-1.95.27-3.49 1.04-4.61s2.01-1.87 3.74-2.25c3.41-.71 6.5-1.05 9.28-1.01 1.05 0 2.11.03 3.18.08 1.07.06 2.15.08 3.23.08.56 0 1.26-.01 2.08-.03.82-.02 1.78-.05 2.87-.08 1.39-.04 2.6-.07 3.65-.08 1.05-.02 1.95-.03 2.7-.03 1.46 0 2.92.06 4.39.17 1.46.11 2.9.32 4.33.62s2.81.72 4.16 1.26 2.64 1.28 3.88 2.22c1.76 1.31 3 3 3.71 5.06a45.54 45.54 0 0 1 1.8 6.13c.19.86.32 1.64.39 2.33.07.69.15 1.34.22 1.94.15 1.76.18 3.55.08 5.37-.09 1.82-.33 3.7-.7 5.65-.67 3.86-2.47 6.88-5.4 9.05-.97.75-2.17 1.39-3.6 1.91.75 1.16 1.36 2.35 1.83 3.57s.84 2.46 1.12 3.74c.28 1.27.5 2.58.65 3.91.15 1.33.28 2.69.39 4.08.07.97.17 1.96.28 2.95.11.99.26 1.98.45 2.95.19.97.52 1.87 1.01 2.7.49.82 1.11 1.61 1.86 2.36 3.15 3.15 3.54 6.41 1.18 9.78-1.42 1.99-3.54 3-6.35 3.04-2.89.07-5.15-.58-6.8-1.97l-.34-.28c-1.69-1.42-3.09-2.98-4.22-4.67-1.12-1.69-2.01-3.5-2.64-5.45-.41-1.24-.77-2.35-1.07-3.35-.3-.99-.54-1.86-.73-2.61-.19-.75-.32-1.66-.39-2.73s-.11-2.28-.11-3.63-.06-2.54-.17-3.57c-.11-1.03-.52-2.15-1.24-3.35-.3-.49-.67-.92-1.1-1.29-.43-.37-.91-.71-1.43-1.01-.75-.37-1.71-.6-2.87-.67-1.16-.04-2.6.02-4.33.17-1.65.11-2.38 1.07-2.19 2.87.22 1.76.3 3.17.22 4.22 0 .94-.06 2.3-.17 4.1-.11 1.5-.12 3.08-.03 4.75s.12 3.29.08 4.86c0 1.2-.05 2.33-.14 3.4s-.18 2.09-.25 3.06c-.07.56-.18 1.21-.31 1.94s-.33 1.55-.59 2.45c-.45 1.84-1.44 2.72-2.98 2.64-1.12-.04-2.12-.07-2.98-.08-.86-.02-1.59-.07-2.19-.14-.86-.07-1.56-.17-2.11-.28-.54-.11-.93-.21-1.15-.28a7.545 7.545 0 0 1-3.49-2.87c-1.09-1.65-1.65-3.82-1.69-6.52-.04-.86-.04-1.74 0-2.64.04-.9.04-1.8 0-2.7-.19-6.67-.35-13.45-.48-20.32-.13-6.88-.01-13.91.37-21.11l.11-2.02c.15-2.36.2-4.66.14-6.89-.04-2.23-.11-4.53-.18-6.89zm25.07 21.31c.79.07 1.63.12 2.53.14.9.02 1.84-.01 2.81-.08 2.06-.19 3.69-.9 4.89-2.14.26-.6.5-1.25.7-1.94s.35-1.4.42-2.11.05-1.41-.08-2.08c-.13-.67-.38-1.33-.76-1.97-1.16-1.84-3.05-2.9-5.68-3.2-2.59-.34-4.83-.39-6.75-.17-.79.07-1.61.13-2.47.17s-1.76.02-2.7-.06c-.56-.04-.97 0-1.24.11-.26.11-.44.3-.53.56-.09.26-.13.59-.11.98s.03.83.03 1.32c0 .67.03 1.35.08 2.02.06.67.1 1.35.14 2.02.19 3.49.81 5.36 1.86 5.62.56.15 1.41.28 2.56.39 1.14.14 2.58.27 4.3.42zm87.53-21.59c.52-4.76 3.3-7.08 8.32-6.97 1.09.04 2.07.27 2.95.7.88.43 1.68 1.02 2.39 1.77 1.46 1.5 2.14 3.26 2.02 5.28-.34 7.27-.42 14.48-.25 21.62.17 7.14.38 14.33.65 21.56l.67 18.83.17 4.67c.04 1.39-.71 2.74-2.25 4.05-1.61 1.31-3.69 1.87-6.24 1.69-2.51-.22-4.4-1.24-5.68-3.04-.11-.19-.25-.44-.42-.76-.17-.32-.38-.72-.65-1.21-.22-.45-.69-1.14-1.41-2.08-.67-.94-1.18-1.72-1.52-2.36-.9-1.46-1.67-2.97-2.3-4.53s-1.35-3.12-2.14-4.69c-.56-.9-1.1-1.83-1.6-2.78-.51-.96-1-1.9-1.49-2.84-.07-.15-.2-.4-.37-.76l-.7-1.49c-.3-.64-.6-1.26-.9-1.86s-.6-1.22-.9-1.86l-4.83-9.89c-.15-.22-.5-.83-1.04-1.83-.54-.99-1.3-2.39-2.28-4.19-1.95-3.56-3.17-5.08-3.65-4.55-.34.37-.36 1.5-.06 3.37.15.94.27 1.72.37 2.36s.16 1.14.2 1.52c.04.82.03 1.62-.03 2.39s-.13 1.54-.22 2.3-.18 1.55-.25 2.33-.09 1.59-.06 2.42c.11 4.42.2 8.84.25 13.24.06 4.4.05 8.82-.03 13.24-.08 2.25-.69 3.97-1.84 5.17-1.14 1.2-2.79 1.89-4.93 2.08-4.29.34-7.11-1.33-8.47-5-.15-.52-.24-1.13-.28-1.83-.04-.69-.04-1.51 0-2.45l.11-4.67c.15-3.75.16-7.51.03-11.27-.13-3.77-.23-7.52-.31-11.27-.22-8.25-.34-16.53-.34-24.85v-8.1c0-1.69.14-3.16.42-4.41.28-1.26.74-2.26 1.38-3.01.68-.75 1.45-1.36 2.31-1.83.87-.47 1.78-.79 2.74-.96.96-.17 1.93-.18 2.9-.03.98.15 1.92.51 2.82 1.07.72.41 1.46.96 2.23 1.63.77.67 1.59 1.44 2.45 2.31.86.86 1.65 1.67 2.36 2.42s1.35 1.44 1.91 2.08c.38.41.82.97 1.32 1.69.51.71 1.08 1.56 1.71 2.53.86 1.35 1.63 2.6 2.3 3.74.67 1.14 1.27 2.18 1.8 3.12.3.56.91 1.62 1.83 3.18s2.13 3.63 3.63 6.21c3 5.13 4.91 7.76 5.73 7.87.6.11.79-1.22.56-3.99-.11-1.42-.19-2.53-.22-3.32-.04-.79-.07-1.27-.11-1.46-.19-2.36-.32-4.62-.39-6.77-.07-2.16-.17-4.41-.28-6.77-.07-1.57-.16-3.02-.25-4.33-.07-1.3-.02-2.78.16-4.43zm50.38 45.54v.22c0 2.25.04 4.5.11 6.75s.15 4.5.22 6.75c.07 1.61.06 3.19-.06 4.72-.11 1.54-.3 3.09-.56 4.67-.49 3-2.92 4.42-7.31 4.27-4.2-.15-6.47-2.08-6.8-5.79 0-.15-.01-.32-.03-.51-.02-.19-.03-.39-.03-.62v-2.61c0-1.03-.04-2.24-.11-3.63-.07-2.7-.14-5.37-.2-8.01-.06-2.64-.12-5.31-.2-8.01-.04-.97-.08-1.91-.14-2.81-.06-.9-.14-1.72-.25-2.47-.11-.75-.17-1.58-.17-2.5 0-.92.04-1.92.11-3.01.11-1.35.2-2.56.25-3.63s.08-2.3.08-3.68c0-3.49.01-6.92.03-10.32.02-3.39.03-6.85.03-10.37v-2.59c0-.87.02-1.74.06-2.64.07-1.87.94-3.35 2.59-4.44.75-.49 1.58-.8 2.5-.93.92-.13 1.9-.12 2.95.03 2.14.3 3.86 1.01 5.17 2.14 1.42 1.27 2.06 2.75 1.91 4.44-.07.82-.14 1.65-.2 2.47s-.08 1.67-.08 2.53c0 1.57.05 2.95.14 4.13.09 1.18.2 2.52.31 4.02.15 2.25.09 4.27-.17 6.07-.15.9-.25 1.85-.31 2.84-.06.99-.08 2.03-.08 3.12l.24 19.4zm58.47-45.54c.52-4.76 3.3-7.08 8.32-6.97 1.09.04 2.07.27 2.95.7.88.43 1.68 1.02 2.39 1.77 1.46 1.5 2.14 3.26 2.02 5.28-.34 7.27-.42 14.48-.25 21.62s.38 14.33.65 21.56l.67 18.83.17 4.67c.04 1.39-.71 2.74-2.25 4.05-1.61 1.31-3.69 1.87-6.24 1.69-2.51-.22-4.4-1.24-5.68-3.04-.11-.19-.25-.44-.42-.76-.17-.32-.38-.72-.65-1.21-.22-.45-.69-1.14-1.41-2.08-.67-.94-1.18-1.72-1.52-2.36-.9-1.46-1.67-2.97-2.31-4.53-.64-1.56-1.35-3.12-2.14-4.69-.56-.9-1.1-1.83-1.6-2.78-.51-.96-1-1.9-1.49-2.84-.07-.15-.2-.4-.37-.76l-.7-1.49c-.3-.64-.6-1.26-.9-1.86s-.6-1.22-.9-1.86l-4.83-9.89c-.15-.22-.5-.83-1.04-1.83-.54-.99-1.3-2.39-2.28-4.19-1.95-3.56-3.17-5.08-3.65-4.55-.34.37-.36 1.5-.06 3.37.15.94.27 1.72.37 2.36s.16 1.14.2 1.52c.04.82.03 1.62-.03 2.39s-.13 1.54-.23 2.3c-.09.77-.18 1.55-.25 2.33s-.09 1.59-.06 2.42c.11 4.42.2 8.84.25 13.24s.05 8.82-.03 13.24c-.07 2.25-.69 3.97-1.84 5.17-1.14 1.2-2.79 1.89-4.93 2.08-4.29.34-7.11-1.33-8.47-5-.15-.52-.24-1.13-.28-1.83-.04-.69-.04-1.51 0-2.45l.11-4.67c.15-3.75.16-7.51.03-11.27-.13-3.77-.23-7.52-.31-11.27-.22-8.25-.34-16.53-.34-24.85v-8.1c0-1.69.14-3.16.42-4.41.28-1.26.74-2.26 1.38-3.01.68-.75 1.45-1.36 2.31-1.83.87-.47 1.78-.79 2.74-.96.96-.17 1.93-.18 2.9-.03.98.15 1.92.51 2.82 1.07.72.41 1.46.96 2.23 1.63.77.67 1.59 1.44 2.45 2.31s1.65 1.67 2.36 2.42 1.35 1.44 1.91 2.08c.37.41.82.97 1.32 1.69.51.71 1.08 1.56 1.71 2.53.86 1.35 1.63 2.6 2.3 3.74s1.27 2.18 1.8 3.12c.3.56.91 1.62 1.83 3.18s2.13 3.63 3.63 6.21c3 5.13 4.91 7.76 5.73 7.87.6.11.79-1.22.56-3.99-.11-1.42-.19-2.53-.22-3.32-.04-.79-.07-1.27-.11-1.46-.19-2.36-.32-4.62-.39-6.77-.07-2.16-.17-4.41-.28-6.77-.07-1.57-.16-3.02-.25-4.33-.06-1.3-.01-2.78.18-4.43zm86.91 4.5c2.21 3.49 2.34 6.62.39 9.39-1.12 1.57-2.85 2.64-5.17 3.2-2.25.49-4.2.06-5.85-1.29-.52-.49-1.01-1.04-1.46-1.66s-.97-1.21-1.57-1.77c-.15-.15-.34-.33-.56-.53s-.49-.44-.79-.7c-2.17-1.8-4.42-3.02-6.75-3.65s-4.69.07-7.08 2.14c-.79.64-1.51 1.44-2.16 2.42-.66.97-1.26 2.06-1.83 3.26-1.05 2.36-1.89 4.54-2.53 6.52-1.46 4.83-2.19 10.4-2.19 16.7 0 6.26 1.8 11.41 5.4 15.46 1.39 1.5 2.72 2.44 3.99 2.81 1.2.37 2.83.67 4.89.9 1.99.19 3.67-.11 5.06-.9.71-.41 1.37-.89 1.97-1.43s1.14-1.15 1.63-1.83c1.24-1.84 1.91-3.92 2.02-6.24.11-2.4-1.54-3.58-4.95-3.54h-3.71c-1.16 0-2.27-.02-3.32-.06-2.02-.04-3.75-1.5-5.17-4.39-1.31-2.74-1.37-5.17-.17-7.31 1.27-2.21 3.47-3.24 6.58-3.09 1.91.07 3.81.07 5.71-.03 1.89-.09 3.79-.07 5.71.08 4.69.34 8.26 2.14 10.74 5.4.23.41.43.73.62.96 1.42 2.47 2.41 5.01 2.95 7.62.54 2.6.61 5.29.2 8.07-.56 3.94-2.3 8.15-5.23 12.65-1.31 2.06-2.92 3.64-4.83 4.72-1.91 1.09-3.97 2.04-6.18 2.87-7.12 2.59-14.35 2.25-21.7-1.01-1.84-.86-3.77-1.95-5.79-3.26-1.01-.67-1.9-1.39-2.67-2.14s-1.45-1.56-2.05-2.42c-.56-.82-1.14-1.81-1.74-2.95-.6-1.14-1.18-2.45-1.74-3.91-.6-1.5-1.09-2.87-1.46-4.1s-.66-2.36-.84-3.37a64.87 64.87 0 0 1-.84-4.72c-1.12-8.62-.37-17.24 2.25-25.86.75-2.4 1.67-4.71 2.75-6.94 1.09-2.23 2.23-4.47 3.43-6.72.64-1.12 1.28-2.11 1.94-2.95.66-.84 1.38-1.55 2.16-2.11 1.54-1.16 3.41-2.36 5.62-3.6 1.31-.71 2.6-1.32 3.85-1.83 1.26-.51 2.52-.85 3.79-1.04 1.39-.22 2.7-.33 3.94-.31s2.45.15 3.63.39c1.18.24 2.35.59 3.51 1.04 1.16.45 2.4.97 3.71 1.57 1.31.64 2.48 1.18 3.51 1.63 1.03.45 1.9.82 2.61 1.12 1.46.6 3.05 2.3 4.78 5.12.15.3.31.58.48.84.15.25.32.52.51.78z"/></g><g><path fill="#c8c8dc" d="M556.35 2608.19c-22.7 0-41.17-18.47-41.17-41.17 0-22.7 18.47-41.17 41.17-41.17h1554.77c22.7 0 41.17 18.47 41.17 41.17 0 22.7-18.47 41.17-41.17 41.17H556.35z" opacity=".5"/><path fill="#b8b8d1" d="M950.8 2539.47v55.08H556.37c-15.2 0-27.54-12.34-27.54-27.54s12.34-27.54 27.54-27.54H950.8z"/><path fill="#a7a7c6" d="M938.64 2519.23h24.3v95.98h-24.3z"/><path fill="#ffcd5c" d="M2468.1 1873.12c-91.71-84.05-212.92 133.66-201.32 219.64h45.81c44.51-21.47 229.77-151.58 155.51-219.64z"/><path fill="#f4b442" d="M2307.33 1952.18c-28.12 49.26-45.26 105.73-40.56 140.57 64.04-55.85 50.71-131.38 40.56-140.57z"/><path fill="#f4b442" d="M2348.71 2000.33c52.3-68.2 105.57-113.66 106.29-114.27 0 0-25.48 15.05-56.84 48.74-6.09-28.17-17.64-58.7-17.64-58.7.08 1.6 13.49 63.14 13.49 63.14-32.47 35.16-72.48 84.21-103.07 140.19l4.19 2.29c14.93-27.32 32.12-52.96 49.58-76.14 11.25-1.21 71.44-7.92 90.81-15.17 0 .01-69.05 7.92-86.81 9.92z"/><path fill="#f4b442" d="M2341.23 2063.71c-16.7 2.93-33.93 5.43-50.91 3.92a82.45 82.45 0 0 1-23.03-5.44c-1.48 11.28-1.72 21.63-.52 30.56h45.81c11.33-5.46 31.78-17.97 54.74-34.69-8.62 2.23-17.33 4.11-26.09 5.65z"/><path fill="#d89935" d="M2271.92 2009.91c6.48 19.17 7.34 36.67 7.43 42.86 4.03-10.48 7.64-21.12 10.72-31.94 1.51-5.31 2.82-10.66 4.04-16.02-7.61-4.77-41.73-27.53-43.25-53.34-1.85-31.23 25.55-25.84 37.34 9.01 5.28 15.61 6.82 30.09 7.26 38.29 4.54-22.02 6.71-44.46 6.63-67.01-.02-4.7-.13-9.39-.32-14.09-3.81-5.91-12.23-20.26-17.35-38.63-9.88-35.45 9.74-55.32 25.79-28.47 11.95 19.98.66 52.8-4.34 65.14.66 15.02.55 30.07-.65 45.07 2.51-7.93 6.53-18.38 12.73-29.04 18.51-31.8 46.43-31.61 38.39-1.38-6.5 24.44-43 39.81-52.45 43.41-2.3 18.65-6.32 36.99-11.77 54.92 4.26-7.29 11.79-18.65 22.62-29.45 26.07-25.97 53-18.59 37.45 8.55-12.88 22.47-53.7 27.65-62.52 28.52a401.34 401.34 0 0 1-9.52 25.97c-2.93 7.17-6.05 14.25-9.31 21.27l-4.85.4c4.51-9.62 8.73-19.38 12.6-29.27-5.69-3.49-42.42-27-44.01-53.81-1.85-31.2 25.55-25.82 37.34 9.04z"/><path fill="#ffcd5c" d="M2201.66 1700.75c-114.68-47.65-80.15 238.55 20.58 392.01h46.96c23.45-38.32 25.32-353.42-67.54-392.01z"/><path fill="#f4b442" d="M2211.87 1881.48c-14.62-79.87-32.57-150.07-32.57-150.07.36 2.02 25.05 140.59 46.21 252.84l-49.56-34.73 52.08 48.39c7.38 39.09 14.07 73.51 18.72 95.39l5.23-1.11c-8.76-41.27-24.81-127.19-39.05-204.94l56.84-39.9-57.9 34.13z"/><path fill="#f4b442" d="M2254.24 2054.76c-16.77 1.75-33.42 4.54-49.89 8.15 5.7 10.38 11.67 20.37 17.89 29.85h46.96c3.92-6.41 7.24-20.6 9.61-39.92-8.29.18-16.6 1.09-24.57 1.92z"/><path fill="#ea907f" d="M2342.48 2265.92a308.833 308.833 0 0 1-132.39 0c-8.27-62.77-16.49-122.26-24.62-176.39a308.797 308.797 0 0 1 181.64 0c-8.15 54.13-16.36 113.61-24.63 176.39z"/><path fill="#d8776a" d="M2276.28 2099.25c14.4-.39 28.66.8 42.92 2.39 14.25 1.72 28.4 3.84 42.32 7.54-14.4.4-28.66-.79-42.92-2.39-14.25-1.72-28.4-3.85-42.32-7.54zm-82.47 9.94c12.13-5.53 25.23-8.37 38.38-10.03 4.22-.47 9-.88 13.23-.94 5.89-.17 11.82.14 17.69 1.04-10.03 2.1-24.34 4.02-34.55 5.62-11.58 1.63-23.02 3.36-34.75 4.31z"/><g><path fill="#ffcd5c" d="m2623.88 2425.15-.57-18.95s-107.55-5.55-152.96-4.19c0 0-21.29-13.87-23.13-52.31-1.22-25.52-2.99-72.44 17.48-78.28 20.47-5.85 163.34 13.47 163.34 13.47l.18-22.67-163.29-11.73-460.83 20.3c-19.33 3.27-33.71 36.25-32.47 75.67.75 23.69 12.71 57.43 24.22 76.37l449.92 1.2 178.11 1.12z"/><path fill="#d89935" d="M2006.28 2381.94c-.48.4-2.5-.83-4.87-4.39-2.36-3.53-4.82-9.37-6.28-17.1-1.49-7.73-2.13-17.29-1.34-28.31.42-5.51 1.16-11.38 2.61-17.63.74-3.13 1.64-6.35 3.03-9.76.36-.86.74-1.72 1.2-2.62l.35-.67.43-.76c.36-.61.75-1.19 1.16-1.76 1.63-2.25 3.85-4.25 6.6-5.01 1.17-.2 2.42-.47 3.55-.61l2.3-.27c1.49-.18 2.91-.32 4.36-.46 2.91-.3 5.84-.56 8.83-.82 5.97-.52 12.12-1.01 18.45-1.49 12.66-.95 26.04-1.85 40.01-2.71 27.95-1.72 58.29-3.3 90.01-4.7 69.67-3.06 132.78-4.67 178.5-4.92s74.05.86 74.15 3.34c.1 2.48-28.05 5.84-73.63 9.34s-108.6 7.11-178.23 10.17c-31.7 1.39-62.04 2.56-89.99 3.52-13.97.46-27.34.9-39.99 1.32-6.31.21-12.44.41-18.38.61-2.95.11-5.85.22-8.7.33-1.42.06-2.84.11-4.16.2-.64.04-1.27.07-1.9.11-.27-.01-.37 0-.57.01-.44-.01-.78.29-1.06.59-.07.08-.15.16-.2.24-.01 0-.12.17-.19.27l-.23.38c-.31.51-.61 1.07-.91 1.66-1.17 2.37-2.17 5.04-3 7.69-1.68 5.33-2.83 10.67-3.69 15.68-1.69 10.06-2.14 18.96-1.87 26.14.26 7.21 1.32 12.68 2.34 16.33 1.02 3.68 1.88 5.62 1.31 6.06z"/><path fill="#e9e9f2" d="M2614.45 2404.87c-27.8.95-106.55-3.99-144.1-2.86 0 0-21.29-13.87-23.13-52.31-1.22-25.52-2.99-72.44 17.48-78.28 16.81-4.8 115.89 3.71 151.08 10.93 2.19.45 4.3 122.33-1.33 122.52z"/><path fill="#a7a7c6" d="m2603.78 2308.73-116.14 1.72s13.48 12.62 37.42 16.78 78.72-18.5 78.72-18.5zm-23.96 52.39-116.99-9.51s13.48 12.62 37.42 16.78c23.94 4.17 79.57-7.27 79.57-7.27z"/><path fill="#a7a7c6" d="M2470.36 2402.01s-21.29-13.87-23.13-52.31c-1.22-25.52-2.99-72.44 17.48-78.28 16.81-4.8 115.89 3.71 151.08 10.93l-121 7.15c-22.2-.74-40.37 23.96-39.15 54.27.01.3.03.61.04.91 1.53 33.32 12.52 53.52 14.68 57.33z" opacity=".5"/><path fill="#d9d9e7" d="M2487.46 2453.9h-465.28c-6.84 0-12.39 4.41-12.39 9.86-5.71 9.99-13.81 27.29-15.93 50.13-3.31 35.63 9.99 62.7 15.93 73.28.13.95.53 4.5 3.63 6.97 2.24 1.78 5.34 2.89 8.76 2.89h460.58c6.7 0 12.18-4.23 12.38-9.56l4.7-123.4c.22-5.57-5.39-10.17-12.38-10.17z"/><path fill="#a7a7c6" d="M1988.61 2453.9h498.85s-3.08 10.04-31.77 15.48c-84.61 16.03-388.59 20.45-388.59 20.45s-51.67 87.94-58.85 85.93c-21.56-6.01-19.64-121.86-19.64-121.86z" opacity=".5"/><path fill="#a7a7c6" d="m2373.34 2499.6-355.84 5.11s92.98 12.98 116.8 17.79 239.04-22.9 239.04-22.9z"/><path fill="#1996f2" d="M1911.12 2425.89c0-2.19 7.14-3.97 15.94-3.97h598.67c8.99 0 5.57 32.55-3.04 32.55h-509.12c-5.73 11.14-15.12 32.98-15.76 62.04-.65 29.56 8.06 52.11 13.38 63.49h517.55c8.99 0 5.23 1.58 4.96 3.5l4.93 27.21c-.26 1.84-7.32 3.29-15.93 3.29h-592.62c-8.8 0-15.94-1.52-15.94-3.4 0 0-16.14-27.12-16.14-100.67-.01-66.97 13.12-84.04 13.12-84.04z"/><path fill="#ea907f" d="m2601.79 2773.49-.95-18.93s-107.64-3.41-153.01-1.14c0 0-21.57-13.44-24.16-51.83-1.73-25.49-4.43-72.36 15.92-78.62 20.35-6.25 163.58 10.22 163.58 10.22l-.27-22.67-163.49-8.48-466.79 13.2c-19.26 3.66-32.98 36.91-30.95 76.3 1.22 23.67 13.85 57.16 25.74 75.87l456.31 8.52 178.07-2.44z"/><path fill="#d8776a" d="M1941.68 2691.56c1.2 23.63 13.84 57.13 25.75 75.86l456.28 8.49 178.12-2.4-1.02-18.92s-15.6-.46-37.38-.92c-278.27 10.72-559.69-24.65-610.21-121.91-8.22 14.12-12.74 35.8-11.54 59.8z" opacity=".5"/><path fill="#d8776a" d="M1978.95 2739.31c-.32.3-2.56-1.45-4.84-6-2.3-4.51-4.41-11.66-5.64-20.9-1.24-9.25-1.7-20.58-.93-33.6.4-6.51 1.09-13.44 2.37-20.78.66-3.67 1.45-7.43 2.62-11.34.61-1.96 1.28-3.95 2.29-6.06.25-.53.54-1.07.86-1.62.07-.13.16-.28.26-.42l.37-.57c.26-.38.53-.71.81-1.05 1.11-1.35 2.56-2.45 4.25-2.94.61-.12 1.18-.22 1.75-.3l.87-.1.68-.06c.72-.05 1.45-.1 2.17-.16 1.41-.08 2.84-.15 4.27-.23 2.85-.13 5.72-.24 8.63-.34 5.81-.19 11.77-.35 17.87-.48 12.19-.26 24.94-.45 38.17-.6 26.45-.28 54.79-.38 84.26-.33 72.35.15 137.85 1.16 185.25 2.51 47.4 1.36 76.72 3.07 76.7 4.73-.01 1.66-29.34 2.96-76.75 3.78-47.41.83-112.9 1.16-185.23 1.01-29.46-.11-57.78-.21-84.21-.31-13.21-.05-25.94-.11-38.1-.16h-17.78c-2.87.03-5.71.05-8.51.07l-4.11.09c-.92.04-1.84.07-2.74.11-.21.01-.37.15-.51.29-.03.03-.08.08-.09.11-.01.02 0-.01-.04.05-.04.06-.09.12-.13.2-.18.29-.37.6-.55.94-.73 1.37-1.37 3.01-1.95 4.66-1.15 3.33-2.04 6.8-2.8 10.21-1.51 6.84-2.51 13.49-3.23 19.74-1.43 12.52-1.73 23.51-1.35 32.44.37 8.95 1.54 15.84 2.85 20.35 1.29 4.54 2.62 6.72 2.19 7.06z"/><path fill="#e9e9f2" d="M2591.96 2753.41c-27.78 1.51-106.61-1.86-144.13.01 0 0-21.57-13.44-24.16-51.83-1.73-25.5-4.43-72.36 15.92-78.62 16.71-5.13 115.94 1.4 151.27 7.91 2.17.41 6.72 122.23 1.1 122.53z"/><path fill="#a7a7c6" d="m2579.36 2657.49-116.08 4.04s13.73 12.35 37.75 16.04c24.02 3.68 78.33-20.08 78.33-20.08zm-11.86 56.98-117.16-7.18s-6.11 14.43 17.91 18.12 99.25-10.94 99.25-10.94z"/><path fill="#a7a7c6" d="M2447.83 2753.42s-21.57-13.44-24.16-51.83c-1.73-25.5-4.43-72.36 15.92-78.62 16.71-5.13 115.94 1.4 151.27 7.91l-120.84 9.56c-22.21-.3-39.88 24.76-38.06 55.04l.06.91c2.19 33.28 13.58 53.26 15.81 57.03z" opacity=".5"/></g><g><path fill="#d9d9e7" d="m623.72 956.26-38.95-9.19 22.29-116.6L655.93 842z"/><circle cx="585.93" cy="1029.28" r="136.72" fill="#e9e9f2"/><path fill="#ffcd5c" d="M702.79 1056.93c-15.23 64.51-79.94 104.5-144.45 89.28-64.64-15.26-104.5-79.94-89.28-144.45 2.55-10.82 6.51-21.02 11.68-30.38 15.84 19.53 42.47 38.09 87.39 44.32 68.16 9.32 93.61-29.23 131.34-25.39 7.24 20.74 8.74 43.65 3.32 66.62z"/><ellipse cx="633.2" cy="829.02" fill="#d9d9e7" rx="13.67" ry="40.19" transform="rotate(-76.714 633.27 829.061)"/><ellipse cx="633.72" cy="826.83" fill="#e9e9f2" rx="8.64" ry="36.77" transform="rotate(-76.714 633.789 826.867)"/></g><g><path fill="#d89935" d="M2437.05 1166.1c-19.31 0-34.96-15.65-34.96-34.96v-34.96h69.93v34.96c0 19.31-15.66 34.96-34.97 34.96z"/><circle cx="2437.05" cy="1036.33" r="77.86" fill="#e9e9f2" transform="rotate(-76.714 2437.261 1036.331)"/><path fill="#f4b442" d="M2437.05 938.53c-2.19 0-3.96-1.77-3.96-3.96v-40.24c0-2.19 1.77-3.96 3.96-3.96s3.96 1.77 3.96 3.96v40.24c0 2.19-1.77 3.96-3.96 3.96zm56.97 24.68c-.94 0-1.88-.33-2.63-1-1.64-1.45-1.78-3.95-.33-5.59l36.7-41.38a3.948 3.948 0 0 1 5.59-.33c1.64 1.45 1.78 3.95.33 5.59l-36.7 41.38c-.78.88-1.87 1.33-2.96 1.33zm-113.93 0c-1.09 0-2.18-.45-2.96-1.33l-36.7-41.38a3.966 3.966 0 0 1 .33-5.59 3.957 3.957 0 0 1 5.59.33l36.7 41.38a3.966 3.966 0 0 1-.33 5.59c-.75.67-1.69 1-2.63 1zm150.64 57.2c-1.3 0-2.58-.64-3.33-1.81a3.979 3.979 0 0 1 1.18-5.48l31.76-20.47a3.961 3.961 0 0 1 5.48 1.18c1.18 1.84.65 4.29-1.18 5.48l-31.76 20.47c-.68.42-1.42.63-2.15.63zm-2.8 50.44a3.971 3.971 0 0 1-1.08-3.64c.46-2.14 2.57-3.5 4.71-3.04l36.94 7.96a3.964 3.964 0 0 1-1.67 7.75l-36.94-7.96c-.77-.17-1.44-.55-1.96-1.07zm-181.75 0c.92-.92 1.37-2.27 1.08-3.64a3.964 3.964 0 0 0-4.71-3.04l-36.94 7.96a3.964 3.964 0 0 0 1.67 7.75l36.94-7.96c.77-.17 1.44-.55 1.96-1.07zm-2.8-50.44c-.73 0-1.48-.2-2.14-.63l-31.76-20.47a3.961 3.961 0 0 1-1.18-5.48 3.968 3.968 0 0 1 5.48-1.18l31.76 20.47a3.961 3.961 0 0 1 1.18 5.48 3.981 3.981 0 0 1-3.34 1.81z"/><path fill="#f4b442" d="m2468.24 1033.14-1.6 9.41c-2.03 5.62-5.53 12.8-9.51 12.85-2.41.03-4.34-.96-5.83-2.32 2.58-5.63 3.94-12.27 3.87-16.99-.08-5.16-1.74-8.19-4.58-8.42-.14-.01-.28-.02-.42-.01-1.92.03-3.5 1.06-4.57 2.98-2.62 4.7-1.74 13.83 1.91 19.94a16.16 16.16 0 0 0 2.1 2.82c-2.64 5.3-6.38 9.32-10.7 9.39-4.78.04-9.28-4.59-12.5-10.51 2.99-4.21 4.92-10.95 4.85-15.96-.07-5.29-2.24-8.37-6.06-8.25-3.25.05-5.07 2.92-4.99 7.88.08 4.84 1.79 10.93 4.54 16.21-1.3 1.63-2.74 2.64-4.19 2.67-.15 0-.31 0-.46-.02-7.1-.58-10.55-16.96-10.58-17.12l-.07.02-.74-3.64-2.76.56 18.48 91.09 2.76-.56-15.64-77.1c1.92 4.05 4.67 7.85 8.45 8.16.19.02.39.02.59.02 1.77-.02 3.44-1.08 4.9-2.75 3.28 5.76 7.78 10.29 12.65 10.69.27.02.55.03.82.03 4.98-.08 8.96-4.31 11.74-9.79 1.91 1.62 4.11 2.44 6.49 2.4 3.5-.05 6.36-4.03 8.47-8.3l-13 76.23 2.78.48 15.62-91.6-2.82-.49zm-46.64 2.78c-.04-2.39.38-6.39 3.6-6.45.16 0 .32 0 .47.02 3.53.29 4.12 4.37 4.16 6.84.06 4.75-1.7 10.68-4.18 14.52-2.44-4.94-3.98-10.54-4.05-14.93zm28.66 16.1c-.61-.71-1.13-1.45-1.55-2.16-3.37-5.63-4.26-14.3-1.89-18.54.82-1.47 1.95-2.23 3.36-2.25.09 0 .18 0 .27.01 2.88.23 3.27 4.97 3.31 7.04.07 4.79-1.23 10.8-3.5 15.9z"/></g><g><path fill="#b8b8d1" d="M1037.52 612.95c-2.06-2.26-4.01-5.63-6.01-9.84-2.09-4.17-4.04-9.24-7.79-14.58-1.81-2.63-4.45-5.46-8.28-7.07-3.76-1.62-8.46-1.77-12.55.27-8.2 4.35-11.22 12.49-14.84 19.21-3.38 6.86-7.52 14.28-13.28 14.17-5.81.61-10.31-7.1-14.37-15.05-2.14-4.02-4.27-8.23-7.52-12.19-3.01-3.92-8.64-7.7-14.51-7.26-5.89.04-10.93 3.99-13.62 7.7-2.9 3.79-4.64 7.65-6.37 11.23-3.31 7.1-6.42 13.97-10.95 16.42-4.65 2.53-9.8.24-13.02-4.14-6.63-8.74-10.34-18.7-16.24-23.18-2.75-2.4-5.69-3.24-7.55-3.33-1.92.06-2.84.25-2.83.54-.13.89 4.1.37 8.13 5.16 2.06 2.26 4.01 5.64 6 9.85 2.09 4.18 4.03 9.24 7.78 14.58 1.81 2.63 4.45 5.47 8.29 7.06 3.77 1.59 8.48 1.75 12.55-.32 8.17-4.39 11.17-12.52 14.78-19.24 3.38-6.86 7.52-14.27 13.28-14.12 5.8-.53 10.3 7.18 14.36 15.13 2.14 4.02 4.28 8.24 7.54 12.19 1.64 1.98 3.71 3.8 6.18 5.26 1.32.59 2.71 1.14 4.09 1.53 1.43.17 2.87.4 4.29.38 5.89-.08 10.89-4.04 13.57-7.75 2.89-3.79 4.64-7.65 6.37-11.23 3.31-7.09 6.43-13.96 10.97-16.37 4.66-2.53 9.81-.19 13.03 4.17 6.63 8.74 10.35 18.7 16.27 23.17 2.76 2.39 5.69 3.23 7.56 3.32 1.92-.06 2.84-.25 2.83-.54.12-.87-4.1-.35-8.14-5.13zm1100.95 646.81c2.06 2.26 4.01 5.63 6.01 9.84 2.09 4.17 4.04 9.24 7.79 14.58 1.81 2.63 4.45 5.46 8.28 7.07 3.76 1.62 8.46 1.77 12.55-.27 8.2-4.35 11.22-12.49 14.84-19.21 3.38-6.86 7.52-14.28 13.28-14.17 5.81-.61 10.31 7.1 14.37 15.05 2.14 4.02 4.27 8.23 7.52 12.19 3.01 3.92 8.64 7.7 14.51 7.26 5.89-.04 10.93-3.99 13.62-7.7 2.9-3.79 4.64-7.65 6.37-11.23 3.31-7.1 6.42-13.97 10.95-16.42 4.65-2.53 9.8-.24 13.02 4.14 6.63 8.74 10.34 18.7 16.24 23.18 2.75 2.4 5.69 3.24 7.55 3.33 1.92-.06 2.84-.25 2.83-.54.13-.89-4.1-.37-8.13-5.16-2.06-2.26-4.01-5.64-6-9.85-2.09-4.18-4.03-9.24-7.78-14.58-1.81-2.63-4.45-5.47-8.29-7.06-3.77-1.59-8.48-1.75-12.55.32-8.17 4.39-11.17 12.52-14.78 19.24-3.38 6.86-7.52 14.27-13.28 14.12-5.8.53-10.3-7.18-14.36-15.13-2.14-4.02-4.28-8.24-7.54-12.19-1.64-1.98-3.71-3.8-6.18-5.26-1.32-.59-2.71-1.14-4.09-1.53-1.43-.17-2.87-.4-4.29-.38-5.89.08-10.89 4.04-13.57 7.75-2.89 3.79-4.64 7.65-6.37 11.23-3.31 7.09-6.43 13.96-10.97 16.37-4.66 2.53-9.81.19-13.03-4.17-6.63-8.74-10.35-18.7-16.27-23.17-2.76-2.39-5.69-3.23-7.56-3.32-1.92.06-2.84.25-2.83.54-.12.87 4.1.35 8.14 5.13zM693.97 2039.8c-3.25-3.89-6.23-9.62-9.22-16.75-3.14-7.08-5.98-15.63-11.81-24.77-2.81-4.5-6.99-9.39-13.21-12.33-6.11-2.95-13.85-3.59-20.8-.6-14.01 6.43-19.78 19.68-26.36 30.48-6.23 11.08-13.72 22.92-23.3 22.24-9.74.54-16.58-12.51-22.7-26-3.24-6.83-6.45-13.99-11.56-20.8-4.72-6.75-13.78-13.36-23.5-13.13-9.73-.43-18.46 5.61-23.26 11.53-5.17 6.02-8.4 12.26-11.59 18.05-6.11 11.47-11.88 22.55-19.62 26.17-7.95 3.76-16.32-.39-21.32-7.87-10.33-14.95-15.71-31.78-25.19-39.65-4.4-4.17-9.2-5.78-12.28-6.07-3.19-.06-4.72.19-4.74.67-.28 1.46 6.75.97 13.09 9.18 3.24 3.9 6.22 9.63 9.21 16.76 3.14 7.08 5.97 15.63 11.8 24.78 2.81 4.5 6.99 9.4 13.23 12.32 6.13 2.92 13.87 3.57 20.81.53 13.96-6.5 19.69-19.73 26.28-30.53 6.22-11.07 13.72-22.91 23.3-22.16 9.71-.41 16.54 12.64 22.67 26.14 3.24 6.83 6.46 13.99 11.59 20.8 2.58 3.41 5.88 6.58 9.87 9.18 2.15 1.06 4.4 2.1 6.66 2.84 2.35.39 4.72.89 7.07.97 9.72.36 18.4-5.7 23.19-11.61 5.15-6.02 8.39-12.26 11.58-18.04 6.12-11.46 11.89-22.53 19.66-26.1 7.97-3.76 16.33.46 21.34 7.92 10.33 14.96 15.72 31.78 25.22 39.63 4.41 4.16 9.21 5.76 12.29 6.05 3.19.06 4.72-.19 4.74-.67.24-1.45-6.79-.96-13.14-9.16z"/><path fill="#c8c8dc" d="M2686.9 2161.97c-10.92-3.77-19.57-12.41-23.34-23.34-.69-2-3.42-2-4.12 0-3.78 10.92-12.43 19.57-23.36 23.34-2 .69-2 3.43 0 4.12 10.93 3.78 19.59 12.43 23.36 23.36.69 2 3.43 2 4.12 0 3.77-10.93 12.41-19.59 23.34-23.36 2-.69 2-3.43 0-4.12zM852.35 1237.9a28.565 28.565 0 0 1-17.63-17.63 1.634 1.634 0 0 0-3.11 0c-2.85 8.25-9.39 14.78-17.65 17.63a1.634 1.634 0 0 0 0 3.11 28.58 28.58 0 0 1 17.65 17.65 1.634 1.634 0 0 0 3.11 0c2.85-8.26 9.38-14.8 17.63-17.65a1.634 1.634 0 0 0 0-3.11zm831.28-493.51a28.565 28.565 0 0 1-17.63-17.63 1.634 1.634 0 0 0-3.11 0c-2.85 8.25-9.39 14.78-17.65 17.63a1.634 1.634 0 0 0 0 3.11 28.58 28.58 0 0 1 17.65 17.65 1.634 1.634 0 0 0 3.11 0c2.85-8.26 9.38-14.8 17.63-17.65a1.63 1.63 0 0 0 0-3.11z"/><path fill="#b8b8d1" d="M443.51 1774.57a44.676 44.676 0 0 1-27.58-27.58c-.82-2.37-4.05-2.37-4.86 0-4.46 12.91-14.69 23.12-27.61 27.58-2.37.82-2.37 4.05 0 4.86 12.92 4.46 23.15 14.69 27.61 27.61.82 2.37 4.05 2.37 4.86 0 4.46-12.92 14.67-23.14 27.58-27.61 2.37-.81 2.37-4.04 0-4.86zm1574.56-747.79a44.676 44.676 0 0 1-27.58-27.58c-.82-2.37-4.05-2.37-4.86 0-4.46 12.91-14.69 23.12-27.61 27.58-2.37.82-2.37 4.05 0 4.86 12.92 4.46 23.15 14.69 27.61 27.61.82 2.37 4.05 2.37 4.86 0 4.46-12.92 14.67-23.14 27.58-27.61 2.37-.81 2.36-4.04 0-4.86zM797.89 2300.83a44.676 44.676 0 0 1-27.58-27.58c-.82-2.37-4.05-2.37-4.86 0-4.46 12.91-14.69 23.12-27.61 27.58-2.37.82-2.37 4.05 0 4.86 12.92 4.46 23.15 14.69 27.61 27.61.82 2.37 4.05 2.37 4.86 0 4.46-12.92 14.67-23.14 27.58-27.61 2.37-.81 2.37-4.04 0-4.86z"/><path fill="#c8c8dc" d="M2221.6 1543.11c1.39-.81 6.83 4.78 12.68 15.77 5.97 10.86 11.91 27.47 13.53 46.57 1.81 19.08-.84 36.44-4.61 48.28-3.65 11.92-8.28 18.45-9.9 17.73-3.34-1.23 5-29.59 1.41-64.8-2.81-35.24-16.85-61.52-13.11-63.55zm-3.32-36.79c.42-.8 2.33-.67 5.5.3 3.1 1.08 7.78 2.49 12.69 5.81 10.24 5.79 23.22 17.27 31.68 33.79 8.74 16.38 10.91 33.31 10.45 45.05-.45 11.86-3.37 18.87-5.12 18.56-1.83-.29-2.29-7.22-4.17-17.98-1.87-10.71-5.19-25.3-12.81-39.51-7.34-14.35-17.48-25.23-25.59-32.44-3.79-3.97-7.5-6.46-9.7-8.83-2.25-2.28-3.35-3.94-2.93-4.75z"/></g></g></svg>